<?xml version="1.0" encoding="UTF-8" standalone="no"?>
<svg width="256px" height="256px" viewBox="0 0 256 256" version="1.1" xmlns="http://www.w3.org/2000/svg" xmlns:xlink="http://www.w3.org/1999/xlink">
    <defs></defs>
    <g id="Server-Locations" stroke="none" stroke-width="1" fill="none" fill-rule="evenodd">
        <g id="fast">
            <g id="Group" transform="translate(48.000000, 37.000000)">
                <path d="M152.223636,50.5035 L157.430909,45.3125 C160.270909,42.481375 160.270909,37.99725 157.430909,35.1643125 L147.014545,24.544875 C144.174545,21.71375 139.438182,21.71375 136.598182,24.544875 L131.627273,29.735875 C129.021818,32.3331875 128.787273,36.34425 130.916364,39.175375 L124.998182,44.8394375 C113.870909,35.873 100.14,29.9715 85.2254545,28.3203125 L85.2254545,20.296375 C88.7763636,19.8233125 91.38,16.7565625 91.38,13.21675 L91.38,7.31525 C91.38,3.3041875 88.0672727,0 84.0418182,0 L69.1272727,0 C65.34,0 62.0254545,3.3041875 62.0254545,7.31525 L62.0254545,13.21675 C62.0254545,16.7565625 64.6309091,19.825125 68.1818182,20.296375 L68.1818182,28.5559375 C29.5909091,32.8044375 -1.42108547e-14,65.137625 -1.42108547e-14,104.550437 C-1.42108547e-14,146.794375 34.3272727,181.25 76.9418182,181.25 C119.32,181.25 153.881818,146.792563 153.881818,104.550437 C153.881818,86.6139375 147.489091,70.093 137.074545,56.87625 L142.992727,51.2121875 C145.830909,53.1008125 149.856364,52.8651875 152.223636,50.5035 L152.223636,50.5035 Z M76.9381818,164.257812 C43.7945455,164.257812 17.0418182,137.588687 17.0418182,104.550437 C17.0418182,71.510375 43.7927273,44.84125 76.9381818,44.84125 C110.083636,44.84125 136.832727,71.510375 136.832727,104.550437 C136.834545,137.588687 110.083636,164.257812 76.9381818,164.257812 L76.9381818,164.257812 Z" id="Shape" fill="#E4E1E1"></path>
                <path d="M36.2690909,104.171625 C36.2690909,106.533312 34.1381818,108.657562 31.7709091,108.657562 C29.4036364,108.657562 27.2727273,106.533312 27.2727273,104.171625 C27.2727273,101.81175 29.4036364,99.6875 31.7709091,99.6875 C34.1381818,99.6875 36.2690909,101.81175 36.2690909,104.171625 L36.2690909,104.171625 Z" id="Shape" fill="#A8E0ED"></path>
                <path d="M40,73.359125 C40,70.99925 42.1309091,68.875 44.4981818,68.875 C46.8654545,68.875 48.9963636,70.99925 48.9963636,73.359125 C48.9963636,75.7208125 46.8654545,77.8450625 44.4981818,77.8450625 C42.1309091,77.8450625 40,75.7208125 40,73.359125 L40,73.359125 Z" id="Shape" fill="#A8E0ED"></path>
                <path d="M40,136.796625 C40,134.43675 42.1309091,132.3125 44.4981818,132.3125 C46.8672727,132.3125 48.9981818,134.43675 48.9981818,136.796625 C48.9981818,139.158313 46.8672727,141.282563 44.4981818,141.282563 C42.1309091,141.28075 40,139.1565 40,136.796625 L40,136.796625 Z" id="Shape" fill="#A8E0ED"></path>
                <path d="M81.6257894,86.9619375 L84.7021531,88.141875 L111.929426,65.25 L115.005789,68.31675 L92.5148803,96.164 C94.1730622,99.7038125 94.6457894,103.952313 93.6985167,107.965188 C91.0930622,116.933438 81.8603349,122.360063 72.6276076,120.002 C63.6330622,117.404688 58.1876076,108.200813 60.5530622,98.9969375 C63.1603349,90.0323125 72.3930622,84.603875 81.6257894,86.9619375 L81.6257894,86.9619375 Z" id="Shape" fill="#1794B0"></path>
                <path d="M72.7272727,58.859125 C72.7272727,56.49925 74.8581818,54.375 77.2254545,54.375 C79.5927273,54.375 81.7236364,56.49925 81.7236364,58.859125 C81.7236364,61.2208125 79.5927273,63.3450625 77.2254545,63.3450625 C74.8581818,63.3450625 72.7272727,61.2208125 72.7272727,58.859125 L72.7272727,58.859125 Z" id="Shape" fill="#A8E0ED"></path>
                <path d="M72.7272727,149.484125 C72.7272727,147.12425 74.8581818,145 77.2254545,145 C79.5927273,145 81.7236364,147.12425 81.7236364,149.484125 C81.7236364,151.844 79.5927273,153.96825 77.2254545,153.96825 C74.8581818,153.96825 72.7272727,151.842187 72.7272727,149.484125 L72.7272727,149.484125 Z" id="Shape" fill="#A8E0ED"></path>
                <path d="M103.636364,136.796625 C103.636364,134.43675 105.767273,132.3125 108.134545,132.3125 C110.501818,132.3125 112.632727,134.43675 112.632727,136.796625 C112.632727,139.1565 110.501818,141.28075 108.134545,141.28075 C105.767273,141.28075 103.636364,139.154688 103.636364,136.796625 L103.636364,136.796625 Z" id="Shape" fill="#A8E0ED"></path>
                <path d="M118.181818,104.173438 C118.181818,101.81175 120.312727,99.6875 122.68,99.6875 C125.049091,99.6875 127.18,101.81175 127.18,104.173438 C127.18,106.533313 125.049091,108.657563 122.68,108.657563 C120.312727,108.657563 118.181818,106.533313 118.181818,104.173438 L118.181818,104.173438 Z" id="Shape" fill="#A8E0ED"></path>
            </g>
        </g>
    </g>
</svg>