<?xml version="1.0" encoding="UTF-8" standalone="no"?>
<svg width="138px" height="93px" viewBox="0 0 138 93" version="1.1" xmlns="http://www.w3.org/2000/svg" xmlns:xlink="http://www.w3.org/1999/xlink" xmlns:sketch="http://www.bohemiancoding.com/sketch/ns">
    <!-- Generator: Sketch 3.3.3 (12072) - http://www.bohemiancoding.com/sketch -->
    <title>ipinfo-logomark-white</title>
    <desc>Created with Sketch.</desc>
    <defs></defs>
    <g id="Page-1" stroke="none" stroke-width="1" fill="none" fill-rule="evenodd" sketch:type="MSPage">
        <g id="ipinfo-logomark-white" sketch:type="MSArtboardGroup" fill="#FFFFFF">
            <path d="M32.7981073,31.0971647 C29.8955761,29.8053411 26.8317931,28.9979513 23.4455067,28.9979513 C11.8353817,28.9979513 2.16027762,38.5251508 2.16027762,50.3130418 C2.16027762,62.1009327 20.220472,83.9004571 23.6067584,83.9004571 C26.0255344,83.9004571 36.1843938,72.435522 41.505701,61.7779768 C36.9906524,54.0270348 32.4756038,44.4998353 32.4756038,36.5874153 C32.4756038,34.6496798 32.6368556,32.8734223 32.7981073,31.0971647 L32.7981073,31.0971647 Z M32.7981073,49.505652 C32.7981073,54.6729466 28.7668139,58.7098956 23.6067584,58.7098956 C18.6079546,58.7098956 14.4154095,54.6729466 14.4154095,49.505652 C14.4154095,44.4998353 18.4467029,40.3014084 23.6067584,40.3014084 C28.6055622,40.3014084 32.7981073,44.4998353 32.7981073,49.505652 L32.7981073,49.505652 Z" id="Shape" sketch:type="MSShapeGroup"></path>
            <path d="M114.552737,28.9979513 C111.166451,28.9979513 108.102668,29.8053411 105.200136,31.0971647 C105.52264,32.8734223 105.52264,34.6496798 105.52264,36.4259374 C105.52264,44.3383573 101.168843,53.8655568 96.4925427,61.6164988 C101.81385,72.435522 111.972709,83.7389791 114.391485,83.7389791 C117.61652,83.7389791 135.676714,62.1009327 135.676714,50.3130418 C135.999218,38.5251508 126.324114,28.9979513 114.552737,28.9979513 L114.552737,28.9979513 Z M114.552737,58.7098956 C109.553933,58.7098956 105.361388,54.6729466 105.361388,49.505652 C105.361388,44.4998353 109.392682,40.3014084 114.552737,40.3014084 C119.551541,40.3014084 123.744086,44.3383573 123.744086,49.505652 C123.744086,54.6729466 119.712793,58.7098956 114.552737,58.7098956 L114.552737,58.7098956 Z" id="Shape" sketch:type="MSShapeGroup"></path>
            <path d="M102.297605,33.0349002 C100.523836,16.2411926 86.3336834,3 69.0797478,3 C51.8258121,3 37.6356594,16.2411926 35.8618903,33.0349002 C35.7006386,34.1652459 35.7006386,35.2955916 35.7006386,36.5874153 C35.7006386,42.7235777 38.7644215,50.4745197 43.1182184,58.2254617 C51.8258121,73.8888237 65.6934613,89.0677517 69.0797478,89.0677517 C72.4660342,89.0677517 86.3336834,73.8888237 95.0412771,58.2254617 C99.395074,50.4745197 102.458857,42.7235777 102.458857,36.5874153 C102.458857,35.2955916 102.458857,34.1652459 102.297605,33.0349002 L102.297605,33.0349002 Z M69.0797478,49.6671299 C61.1784127,49.6671299 54.7283433,43.2080116 54.7283433,35.2955916 C54.7283433,27.3831717 61.1784127,20.9240534 69.0797478,20.9240534 C76.9810828,20.9240534 83.4311522,27.3831717 83.4311522,35.2955916 C83.4311522,43.2080116 76.9810828,49.6671299 69.0797478,49.6671299 L69.0797478,49.6671299 Z" id="Shape" sketch:type="MSShapeGroup"></path>
        </g>
    </g>
</svg>