<?xml version="1.0" encoding="UTF-8" standalone="no"?>
<svg width="256px" height="256px" viewBox="0 0 256 256" version="1.1" xmlns="http://www.w3.org/2000/svg" xmlns:xlink="http://www.w3.org/1999/xlink">
    <defs></defs>
    <g id="Server-Locations" stroke="none" stroke-width="1" fill="none" fill-rule="evenodd">
        <g id="reliable">
            <g id="Group" transform="translate(43.000000, 46.000000)">
                <g>
                    <rect id="Rectangle-33-Copy-3" fill="#1794B0" x="25.0819672" y="11.147541" width="15.9021196" height="26.4754098"></rect>
                    <rect id="Rectangle-33-Copy-6" fill-opacity="0.400000006" fill="#1794B0" x="45.9836066" y="11.147541" width="15.9021196" height="26.4754098"></rect>
                    <rect id="Rectangle-33-Copy-4" fill="#1794B0" x="25.0819672" y="68.2786885" width="15.9021196" height="26.4754098"></rect>
                    <rect id="Rectangle-33-Copy-7" fill-opacity="0.400000006" fill="#1794B0" x="45.9836066" y="68.2786885" width="15.9021196" height="26.4754098"></rect>
                    <rect id="Rectangle-33-Copy-5" fill="#1794B0" x="25.0819672" y="125.409836" width="15.9021196" height="26.4754098"></rect>
                    <rect id="Rectangle-33-Copy-8" fill-opacity="0.400000006" fill="#1794B0" x="45.9836066" y="125.409836" width="15.9021196" height="26.4754098"></rect>
                    <g id="Page-1" fill="#E4E1E1">
                        <path d="M160.808368,58.2187295 L9.24922785,58.2187295 C4.36862438,58.2187295 0.427080067,62.1732774 0.427080067,67.0699826 L0.427080067,96.4627757 C0.427080067,101.359481 4.36862438,105.316541 9.24922785,105.316541 L160.62306,105.316541 C165.503664,105.316541 169.447712,101.359481 169.447712,96.4627757 L169.447712,67.0699826 C169.457729,62.1732774 165.503664,58.2187295 160.808368,58.2187295 L160.808368,58.2187295 Z M38.7306771,84.5991319 C38.7306771,85.9131272 37.6063103,86.8552844 36.4819435,86.8552844 L31.7866477,86.8552844 C30.4769732,86.8552844 29.537914,85.7272081 29.537914,84.5991319 L29.537914,79.8883458 C29.537914,78.5718381 30.6622808,77.4337121 31.7866477,77.4337121 L36.4819435,77.4337121 C37.791618,77.4337121 38.7306771,78.5617884 38.7306771,79.8883458 L38.7306771,84.5991319 Z M57.3265526,84.5991319 C57.3265526,85.9131272 56.2021858,86.8552844 55.077819,86.8552844 L50.3825232,86.8552844 C49.0703445,86.8552844 48.1312853,85.7272081 48.1312853,84.5991319 L48.1312853,79.8883458 C48.1312853,78.5718381 49.2581563,77.4337121 50.3825232,77.4337121 L55.077819,77.4337121 C56.3874935,77.4337121 57.3265526,78.5617884 57.3265526,79.8883458 L57.3265526,84.5991319 Z M142.027185,84.5991319 C142.027185,85.9131272 140.902818,86.8552844 139.778451,86.8552844 L106.540765,86.8552844 C105.228586,86.8552844 104.289527,85.7272081 104.289527,84.5991319 L104.289527,79.8883458 C104.289527,78.5718381 105.413894,77.4337121 106.540765,77.4337121 L139.593143,77.4337121 C140.902818,77.4337121 141.841877,78.5617884 141.841877,79.8883458 L141.841877,84.5991319 L142.027185,84.5991319 Z" id="Fill-1"></path>
                        <path d="M160.808368,115.69032 L9.24922785,115.69032 C4.36862438,115.69032 0.427080067,119.644868 0.427080067,124.541574 L0.427080067,153.934367 C0.427080067,158.831072 4.36862438,162.788132 9.24922785,162.788132 L160.62306,162.788132 C165.503664,162.788132 169.447712,158.831072 169.447712,153.934367 L169.447712,124.541574 C169.457729,119.644868 165.503664,115.69032 160.808368,115.69032 L160.808368,115.69032 Z M38.7306771,142.070723 C38.7306771,143.384718 37.6063103,144.326875 36.4819435,144.326875 L31.7866477,144.326875 C30.4769732,144.326875 29.537914,143.198799 29.537914,142.070723 L29.537914,137.359937 C29.537914,136.043429 30.6622808,134.905303 31.7866477,134.905303 L36.4819435,134.905303 C37.791618,134.905303 38.7306771,136.033379 38.7306771,137.359937 L38.7306771,142.070723 Z M57.3265526,142.070723 C57.3265526,143.384718 56.2021858,144.326875 55.077819,144.326875 L50.3825232,144.326875 C49.0703445,144.326875 48.1312853,143.198799 48.1312853,142.070723 L48.1312853,137.359937 C48.1312853,136.043429 49.2581563,134.905303 50.3825232,134.905303 L55.077819,134.905303 C56.3874935,134.905303 57.3265526,136.033379 57.3265526,137.359937 L57.3265526,142.070723 Z M142.027185,142.070723 C142.027185,143.384718 140.902818,144.326875 139.778451,144.326875 L106.540765,144.326875 C105.228586,144.326875 104.289527,143.198799 104.289527,142.070723 L104.289527,137.359937 C104.289527,136.043429 105.413894,134.905303 106.540765,134.905303 L139.593143,134.905303 C140.902818,134.905303 141.841877,136.033379 141.841877,137.359937 L141.841877,142.070723 L142.027185,142.070723 Z" id="Fill-2"></path>
                        <path d="M160.808368,0.747138599 L9.24922785,0.747138599 C4.36862438,0.747138599 0.427080067,4.70168654 0.427080067,9.5983917 L0.427080067,38.9911848 C0.427080067,43.88789 4.36862438,47.8449503 9.24922785,47.8449503 L160.62306,47.8449503 C165.503664,47.8449503 169.447712,43.88789 169.447712,38.9911848 L169.447712,9.5983917 C169.457729,4.70168654 165.503664,0.747138599 160.808368,0.747138599 L160.808368,0.747138599 Z M38.7306771,27.127541 C38.7306771,28.4415363 37.6063103,29.3836935 36.4819435,29.3836935 L31.7866477,29.3836935 C30.4769732,29.3836935 29.537914,28.2556172 29.537914,27.127541 L29.537914,22.4167548 C29.537914,21.1002471 30.6622808,19.9621212 31.7866477,19.9621212 L36.4819435,19.9621212 C37.791618,19.9621212 38.7306771,21.0901975 38.7306771,22.4167548 L38.7306771,27.127541 Z M57.3265526,27.127541 C57.3265526,28.4415363 56.2021858,29.3836935 55.077819,29.3836935 L50.3825232,29.3836935 C49.0703445,29.3836935 48.1312853,28.2556172 48.1312853,27.127541 L48.1312853,22.4167548 C48.1312853,21.1002471 49.2581563,19.9621212 50.3825232,19.9621212 L55.077819,19.9621212 C56.3874935,19.9621212 57.3265526,21.0901975 57.3265526,22.4167548 L57.3265526,27.127541 Z M142.027185,27.127541 C142.027185,28.4415363 140.902818,29.3836935 139.778451,29.3836935 L106.540765,29.3836935 C105.228586,29.3836935 104.289527,28.2556172 104.289527,27.127541 L104.289527,22.4167548 C104.289527,21.1002471 105.413894,19.9621212 106.540765,19.9621212 L139.593143,19.9621212 C140.902818,19.9621212 141.841877,21.0901975 141.841877,22.4167548 L141.841877,27.127541 L142.027185,27.127541 Z" id="Fill-3"></path>
                    </g>
                </g>
            </g>
        </g>
    </g>
</svg>