<?xml version="1.0" encoding="UTF-8" standalone="no"?>
<svg width="256px" height="256px" viewBox="0 0 256 256" version="1.1" xmlns="http://www.w3.org/2000/svg" xmlns:xlink="http://www.w3.org/1999/xlink">
    <defs></defs>
    <g id="Server-Locations" stroke="none" stroke-width="1" fill="none" fill-rule="evenodd">
        <g id="up-to-date">
            <g id="Shape-Copy-7-+-Oval-1-Copy-Copy-Copy-Copy-Copy-+-Shape-Copy-7-+-Oval-1-Copy-Copy-Copy-Copy-Copy-Copy-+-Shape-Copy-7-+-Oval-1-Copy-Copy-Copy-Copy-Copy-Copy-Copy" transform="translate(38.000000, 66.000000)">
                <g id="Shape-Copy-7-+-Oval-1-Copy-Copy-Copy-Copy-Copy">
                    <path d="M94.3894016,42.5691499 C91.8753981,18.7670446 71.7633707,-5.92491935e-14 47.3089737,-5.92491935e-14 C22.8545767,-5.92491935e-14 2.7425492,18.7670446 0.228545767,42.5691499 C-2.84217094e-14,44.1712147 -2.84217094e-14,45.7732795 -2.84217094e-14,47.6042107 C-2.84217094e-14,56.3011338 4.34236956,67.2867209 10.5131053,78.2723079 C22.8545767,100.472348 42.5095126,121.98579 47.3089737,121.98579 C52.1084348,121.98579 71.7633707,100.472348 84.1048421,78.2723079 C90.2755778,67.2867209 94.6179473,56.3011338 94.6179473,47.6042107 C94.6179473,45.7732795 94.6179473,44.1712147 94.3894016,42.5691499 L94.3894016,42.5691499 Z M47.3089737,66.1423889 C36.1102311,66.1423889 26.9684004,56.987733 26.9684004,45.7732795 C26.9684004,34.558826 36.1102311,25.4041701 47.3089737,25.4041701 C58.5077162,25.4041701 67.6495469,34.558826 67.6495469,45.7732795 C67.6495469,56.987733 58.5077162,66.1423889 47.3089737,66.1423889 L47.3089737,66.1423889 Z" id="Shape-Copy-7" stroke="#FFFFFF" stroke-width="5" fill="#A8E1ED"></path>
                    <circle id="Oval-1" fill="#FFFFFF" cx="46.7716535" cy="45.3543307" r="24.0944882"></circle>
                </g>
                <g id="Shape-Copy-7-+-Oval-1-Copy-Copy-Copy-Copy-Copy-Copy" transform="translate(42.519685, 0.000000)">
                    <path d="M94.3894016,42.5691499 C91.8753981,18.7670446 71.7633707,-5.92491935e-14 47.3089737,-5.92491935e-14 C22.8545767,-5.92491935e-14 2.7425492,18.7670446 0.228545767,42.5691499 C-2.84217094e-14,44.1712147 -2.84217094e-14,45.7732795 -2.84217094e-14,47.6042107 C-2.84217094e-14,56.3011338 4.34236956,67.2867209 10.5131053,78.2723079 C22.8545767,100.472348 42.5095126,121.98579 47.3089737,121.98579 C52.1084348,121.98579 71.7633707,100.472348 84.1048421,78.2723079 C90.2755778,67.2867209 94.6179473,56.3011338 94.6179473,47.6042107 C94.6179473,45.7732795 94.6179473,44.1712147 94.3894016,42.5691499 L94.3894016,42.5691499 Z M47.3089737,66.1423889 C36.1102311,66.1423889 26.9684004,56.987733 26.9684004,45.7732795 C26.9684004,34.558826 36.1102311,25.4041701 47.3089737,25.4041701 C58.5077162,25.4041701 67.6495469,34.558826 67.6495469,45.7732795 C67.6495469,56.987733 58.5077162,66.1423889 47.3089737,66.1423889 L47.3089737,66.1423889 Z" id="Shape-Copy-7" stroke="#FFFFFF" stroke-width="5" fill="#4CC1DB"></path>
                    <circle id="Oval-1" fill="#FFFFFF" cx="46.7716535" cy="45.3543307" r="24.0944882"></circle>
                </g>
                <g id="Shape-Copy-7-+-Oval-1-Copy-Copy-Copy-Copy-Copy-Copy-Copy" transform="translate(85.039370, 0.000000)">
                    <path d="M94.3894016,42.5691499 C91.8753981,18.7670446 71.7633707,-6.39488462e-14 47.3089737,-6.39488462e-14 C22.8545767,-6.39488462e-14 2.7425492,18.7670446 0.228545767,42.5691499 C-2.84217094e-14,44.1712147 -2.84217094e-14,45.7732795 -2.84217094e-14,47.6042107 C-2.84217094e-14,56.3011338 4.34236956,67.2867209 10.5131053,78.2723079 C22.8545767,100.472348 42.5095126,121.98579 47.3089737,121.98579 C52.1084348,121.98579 71.7633707,100.472348 84.1048421,78.2723079 C90.2755778,67.2867209 94.6179473,56.3011338 94.6179473,47.6042107 C94.6179473,45.7732795 94.6179473,44.1712147 94.3894016,42.5691499 L94.3894016,42.5691499 Z M47.3089737,66.1423889 C36.1102311,66.1423889 26.9684004,56.987733 26.9684004,45.7732795 C26.9684004,34.558826 36.1102311,25.4041701 47.3089737,25.4041701 C58.5077162,25.4041701 67.6495469,34.558826 67.6495469,45.7732795 C67.6495469,56.987733 58.5077162,66.1423889 47.3089737,66.1423889 L47.3089737,66.1423889 Z" id="Shape-Copy-7" stroke="#FFFFFF" stroke-width="5" fill="#1794B0"></path>
                    <circle id="Oval-1" fill="#FFFFFF" cx="46.7716535" cy="45.3543307" r="24.0944882"></circle>
                </g>
            </g>
        </g>
    </g>
</svg>